{"title":"EPL 2014.11.29 Sunderland vs Chelsea 480p Sky Sports-Road2HD","uid":11599386,"size":1055434162,"categoryP":"video","categoryS":"tv_shows","magnet":"?xt=urn:btih:6f5fb2d9f5eb3f551b4d5eeeef9c88eaa5908795&amp;dn=EPL+2014.11.29+Sunderland+vs+Chelsea+480p+Sky+Sports-Road2HD&amp;tr=udp%3A%2F%2Ftracker.openbittorrent.com%3A80&amp;tr=udp%3A%2F%2Fopen.demonii.com%3A1337&amp;tr=udp%3A%2F%2Ftracker.coppersurfer.tk%3A6969&amp;tr=udp%3A%2F%2Fexodus.desync.com%3A6969","seeders":0,"leechers":0,"uploader":"Road2HD","files":2,"time":1417322731,"description":"source:WEB-DL\n\nchannel:Sky Sports\n\ncredit:Road2HD\n\n\n\nGeneral\nComplete name                            : 1st.mp4\nFormat                                   : MPEG-4\nFormat profile                           : Base Media\nCodec ID                                 : isom\nFile size                                : 478 MiB\nDuration                                 : 51mn 50s\nOverall bit rate mode                    : Variable\nOverall bit rate                         : 1 290 Kbps\nEncoded date                             : UTC 2014-11-29 19:57:12\nTagged date                              : UTC 2014-11-29 19:57:12\n\nVideo\nID                                       : 1\nFormat                                   : AVC\nFormat/Info                              : Advanced Video Codec\nFormat profile                           : &lt;a class=&quot;__cf_email__&quot; href=&quot;/cdn-cgi/l/email-protection&quot; data-cfemail=&quot;d39eb2babd939fe0fde3&quot;&gt;[email&amp;#160;protected]&lt;/a&gt;&lt;script cf-hash='f9e31' type=&quot;text/javascript&quot;&gt;\n/* &lt;![CDATA[ */!function(){try{var t=&quot;currentScript&quot;in document?document.currentScript:function(){for(var t=document.getElementsByTagName(&quot;script&quot;),e=t.length;e--;)if(t[e].getAttribute(&quot;cf-hash&quot;))return t[e]}();if(t&amp;&amp;t.previousSibling){var e,r,n,i,c=t.previousSibling,a=c.getAttribute(&quot;data-cfemail&quot;);if(a){for(e=&quot;&quot;,r=parseInt(a.substr(0,2),16),n=2;a.length-n;n+=2)i=parseInt(a.substr(n,2),16)^r,e+=String.fromCharCode(i);e=document.createTextNode(e),c.parentNode.replaceChild(e,c)}}}catch(u){}}();/* ]]&gt; */&lt;/script&gt;\nFormat settings, CABAC                   : Yes\nFormat settings, ReFrames                : 4 frames\nCodec ID                                 : avc1\nCodec ID/Info                            : Advanced Video Coding\nDuration                                 : 51mn 50s\nBit rate                                 : 1 200 Kbps\nMaximum bit rate                         : 4 174 Kbps\nWidth                                    : 854 pixels\nHeight                                   : 480 pixels\nDisplay aspect ratio                     : 16:9\nFrame rate mode                          : Constant\nFrame rate                               : 25.000 fps\nColor space                              : YUV\nChroma subsampling                       : 4:2:0\nBit depth                                : 8 bits\nScan type                                : Progressive\nBits/(Pixel*Frame)                       : 0.117\nStream size                              : 445 MiB (93%)\nWriting library                          : Zencoder Video Encoding System\nEncoded date                             : UTC 2014-11-29 19:49:47\nTagged date                              : UTC 2014-11-29 19:57:13\n\nAudio\nID                                       : 2\nFormat                                   : AAC\nFormat/Info                              : Advanced Audio Codec\nFormat profile                           : LC\nCodec ID                                 : 40\nDuration                                 : 51mn 50s\nBit rate mode                            : Variable\nBit rate                                 : 85.4 Kbps\nMaximum bit rate                         : 103 Kbps\nChannel(s)                               : 2 channels\nChannel positions                        : Front: L R\nSampling rate                            : 48.0 KHz\nCompression mode                         : Lossy\nStream size                              : 31.7 MiB (7%)\nEncoded date                             : UTC 2014-11-29 19:57:13\nTagged date                              : UTC 2014-11-29 19:57:13","torrent":{"xt":"urn:btih:6f5fb2d9f5eb3f551b4d5eeeef9c88eaa5908795","amp;dn":"EPL+2014.11.29+Sunderland+vs+Chelsea+480p+Sky+Sports-Road2HD","amp;tr":["udp%3A%2F%2Ftracker.openbittorrent.com%3A80","udp%3A%2F%2Fopen.demonii.com%3A1337","udp%3A%2F%2Ftracker.coppersurfer.tk%3A6969","udp%3A%2F%2Fexodus.desync.com%3A6969"],"infoHash":"6f5fb2d9f5eb3f551b4d5eeeef9c88eaa5908795","infoHashBuffer":{"type":"Buffer","data":[111,95,178,217,245,235,63,85,27,77,94,238,239,156,136,234,165,144,135,149]},"announce":[],"urlList":[]}}